<?xml version="1.0" encoding="UTF-8" standalone="no"?>
<!-- Created with Inkscape (http://www.inkscape.org/) -->

<svg
   width="210mm"
   height="200mm"
   viewBox="0 0 210 200"
   version="1.1"
   id="svg1"
   xml:space="preserve"
   inkscape:version="1.3.2 (091e20ef0f, 2023-11-25)"
   sodipodi:docname="logo.svg"
   xmlns:inkscape="http://www.inkscape.org/namespaces/inkscape"
   xmlns:sodipodi="http://sodipodi.sourceforge.net/DTD/sodipodi-0.dtd"
   xmlns="http://www.w3.org/2000/svg"
   xmlns:svg="http://www.w3.org/2000/svg"><sodipodi:namedview
     id="namedview1"
     pagecolor="#ffffff"
     bordercolor="#000000"
     borderopacity="0.25"
     inkscape:showpageshadow="2"
     inkscape:pageopacity="0.0"
     inkscape:pagecheckerboard="0"
     inkscape:deskcolor="#d1d1d1"
     inkscape:document-units="mm"
     showguides="false"
     inkscape:zoom="1.0133364"
     inkscape:cx="154.44033"
     inkscape:cy="431.24871"
     inkscape:window-width="2560"
     inkscape:window-height="1357"
     inkscape:window-x="0"
     inkscape:window-y="0"
     inkscape:window-maximized="1"
     inkscape:current-layer="layer1" /><defs
     id="defs1" /><g
     inkscape:label="Layer 1"
     inkscape:groupmode="layer"
     id="layer1"><path
       id="rect8"
       style="fill:#ffffff;fill-opacity:1;stroke:#ffffff;stroke-width:0.256298;stroke-dasharray:none;stroke-opacity:1"
       d="m 38.746143,8.5747053 c -6.003383,0 -10.836154,4.8326667 -10.836154,10.8361597 v 15.67233 h 15.415764 c 1.617203,0 2.919138,1.301902 2.919138,2.91913 0,1.617247 -1.301935,2.919149 -2.919138,2.919149 H 27.909989 v 5.769538 h 15.415764 c 1.617203,0 2.919138,1.301902 2.919138,2.91913 0,1.617228 -1.301935,2.919149 -2.919138,2.919149 H 27.909989 v 23.657131 h 15.415764 c 1.617222,0 2.919138,1.301902 2.919138,2.91913 0,1.617228 -1.301916,2.91913 -2.919138,2.91913 H 27.909989 v 5.769537 h 15.415764 c 1.617222,0 2.919138,1.3019 2.919138,2.91915 0,1.61723 -1.301916,2.91913 -2.919138,2.91913 H 27.909989 v 18.196451 h 15.415764 c 1.617222,0 2.919138,1.30209 2.919138,2.91913 0,1.61725 -1.301916,2.92012 -2.919138,2.92012 H 27.909989 v 5.76857 h 15.415764 c 1.617222,0 2.919138,1.3019 2.919138,2.91913 0,1.61724 -1.301916,2.91915 -2.919138,2.91915 H 27.909989 v 11.43256 h 15.415764 c 1.617222,0 2.919138,1.30205 2.919138,2.91913 0,1.61725 -1.301916,2.91915 -2.919138,2.91915 H 27.909989 v 5.76954 h 15.415764 c 1.617222,0 2.919138,1.3019 2.919138,2.91913 0,1.61722 -1.301916,2.91914 -2.919138,2.91914 H 27.909989 v 4.77519 c 0,6.00319 4.832771,10.83711 10.836154,10.83711 H 172.14643 c 6.00343,0 10.83809,-4.83392 10.83809,-10.83711 v -48.77238 h -31.16944 v -5.09663 h 35.41889 c 6.02276,0 10.87197,-4.84927 10.87197,-10.871971 V 86.894765 c 0,-6.02281 -4.84921,-10.871009 -10.87197,-10.871009 h -35.41889 v -5.955439 h 31.16944 V 19.410865 c 0,-6.003493 -4.83466,-10.8361597 -10.83809,-10.8361597 z M 162.58056,21.939801 a 9.3149535,8.697469 0 0 1 9.31511,8.698354 9.3149535,8.697469 0 0 1 -9.31511,8.697399 9.3149535,8.697469 0 0 1 -9.3151,-8.697399 9.3149535,8.697469 0 0 1 9.3151,-8.698354 z M 25.079925,40.951489 c -6.51801,0 -11.76466,5.24763 -11.76466,11.76563 0,5.638948 3.927883,10.323882 9.207632,11.485808 v -5.288324 c -1.765354,-1.205918 -2.921076,-3.232713 -2.921076,-5.541053 0,-3.7164 2.992281,-6.70772 6.708694,-6.70772 h 1.532669 v -5.714341 z m 51.875467,21.362483 c 3.13749,0 5.679491,2.872703 5.679491,6.420161 v 16.32588 h 41.307507 v -16.32395 c 0,-3.549594 2.54302,-6.422091 5.67853,-6.422091 3.1351,0 5.67562,2.874483 5.67562,6.422091 v 43.007697 c 0,3.54388 -2.54031,6.42209 -5.67562,6.42209 -3.13571,0 -5.67853,-2.87626 -5.67853,-6.42016 V 95.419809 H 82.634883 v 16.323951 c 0,3.54388 -2.543968,6.42209 -5.679491,6.42209 -3.135526,0 -5.674651,-2.87624 -5.674651,-6.42209 -0.0019,-10.74522 -0.0039,-32.258506 -0.0039,-43.007697 0,-3.545828 2.543204,-6.422091 5.678524,-6.422091 z M 64.04728,70.892267 h 0.557686 c 2.36385,0 4.279405,1.915953 4.277531,4.281403 v 30.14022 c 0,2.36584 -1.91562,4.27754 -4.279466,4.27754 H 64.04728 c -2.36385,0 -4.280435,-1.91558 -4.280435,-4.2814 V 75.169792 c 0,-2.365638 1.916585,-4.277525 4.280435,-4.277525 z m 78.21355,0 h 0.55672 c 2.36385,0 4.28231,1.915953 4.28044,4.281403 10e-4,7.445372 0.002,22.697079 0.002,30.14022 0,2.36584 -1.91754,4.27754 -4.2814,4.27754 h -0.55574 c -2.36385,0 -4.2814,-1.91754 -4.2814,-4.2814 V 75.169792 c 0,-2.365638 1.91719,-4.277525 4.27945,-4.277525 z M 56.002463,81.704223 c 0.939981,0 1.701899,0.960441 1.702105,2.140691 -0.0019,3.283055 -0.0019,9.513685 -0.0019,12.790955 0,1.18184 -0.760206,2.14071 -1.700168,2.14071 -0.939753,-0.004 -1.702106,-0.96254 -1.702106,-2.14457 -0.0019,-3.27931 -0.0019,-9.50211 -0.0019,-12.785165 0,-1.181974 0.764288,-2.142621 1.70404,-2.142621 z m 95.485367,0 c 0.93976,0 1.70018,0.960647 1.70018,2.140691 v 12.790955 c 0,1.18184 -0.75847,2.14071 -1.69825,2.14071 -0.94153,0 -1.70403,-0.95868 -1.70403,-2.14071 V 83.846844 c 0,-1.181974 0.76233,-2.142621 1.7021,-2.142621 z m -126.407905,0.39115 c -6.51801,0 -11.76466,5.247626 -11.76466,11.765626 0,5.63895 3.927883,10.323891 9.207632,11.485811 v -5.28737 c -1.765354,-1.205921 -2.921076,-3.233671 -2.921076,-5.542011 0,-3.71639 2.992281,-6.70771 6.708694,-6.70771 h 1.532669 v -5.714346 z m 150.179285,1.724378 a 9.2624154,8.3361763 0 0 1 9.26088,8.336248 9.2624154,8.3361763 0 0 1 -9.26088,8.336241 9.2624154,8.3361763 0 0 1 -9.2638,-8.336241 9.2624154,8.3361763 0 0 1 9.2638,-8.336248 z M 25.079925,117.59849 c -6.51801,0 -11.76466,5.24763 -11.76466,11.76563 0,5.63895 3.927883,10.32388 9.207632,11.48581 v -5.28833 c -1.765354,-1.20592 -2.921076,-3.23275 -2.921076,-5.54103 0,-3.71646 2.992281,-6.70774 6.708694,-6.70774 h 1.532669 v -5.71434 z m 137.500635,26.68082 a 9.3149535,8.697469 0 0 1 9.31511,8.6974 9.3149535,8.697469 0 0 1 -9.31511,8.69835 9.3149535,8.697469 0 0 1 -9.3151,-8.69835 9.3149535,8.697469 0 0 1 9.3151,-8.6974 z m -137.500635,2.31304 c -6.51801,0 -11.76466,5.24769 -11.76466,11.76563 0,5.63895 3.927883,10.3239 9.207632,11.48583 v -5.28834 c -1.765354,-1.20592 -2.921076,-3.2327 -2.921076,-5.54104 0,-3.71645 2.992281,-6.70869 6.708694,-6.70869 h 1.532669 v -5.71339 z m 2.221062,23.1314 c -0.650548,0.61043 -1.057279,1.39633 -1.057279,2.26851 v 17.40542 c 0,1.93373 1.928123,3.49134 4.323037,3.49134 H 179.3063 c 2.39492,0 4.32303,-1.55761 4.32303,-3.49134 v -5.20411 c -2.36691,2.3606 -5.98314,3.86702 -10.05479,3.86702 H 44.278467 c -7.163653,0 -12.930382,-4.65672 -12.930382,-10.44113 v -2.79907 c -2.014378,-1.2404 -3.487284,-3.02227 -4.047098,-5.09664 z m 10.231025,7.82891 c -6.85e-4,0.0341 -0.0097,0.0626 -0.0097,0.0969 0,1.37688 0.554201,2.48442 1.242208,2.48442 h 140.70632 c 0.68802,0 1.24221,-1.10754 1.24221,-2.48442 0,-0.0343 -0.007,-0.063 -0.009,-0.0969 z m 3.822475,5.68723 c -6.55e-4,0.0247 -0.0097,0.0457 -0.0097,0.0706 0,1.00134 0.531189,1.80668 1.189923,1.80668 h 134.71991 c 0.65874,0 1.18992,-0.80534 1.18992,-1.80668 0,-0.0249 -0.007,-0.0459 -0.009,-0.0706 z" /></g><g
     inkscape:groupmode="layer"
     id="layer2"
     inkscape:label="Layer 2" /></svg>
